<svg width="66" height="48" viewBox="0 0 66 48" fill="none" xmlns="http://www.w3.org/2000/svg">
<g clip-path="url(#clip0_76_886)">
<g clip-path="url(#clip1_76_886)">
<path d="M11.1901 27.0816C9.25888 28.1189 7.46479 29.1943 5.57092 30.0935C4.79841 30.443 4.12569 30.9688 3.41548 31.306C2.94201 31.5308 2.74292 32.1586 2.68093 32.8245C2.61926 34.1439 2.22107 35.3994 1.9475 36.6302C1.87286 36.9065 2.04745 37.1332 1.97281 37.4095C1.53713 38.4764 1.82432 39.5957 1.71268 40.6636C1.61354 41.7944 1.45208 42.9376 1.53985 44.0312C1.57765 44.8733 1.41603 45.6897 1.51614 46.5195C1.57877 47.1606 1.81567 47.3749 2.40126 47.0625C3.28589 46.6253 4.32012 46.2891 5.03016 45.6251C5.57827 45.1241 6.20118 44.6735 6.83658 44.2858C7.69623 43.7229 8.55587 43.1599 9.35321 42.6094C10.2627 41.9711 11.2469 41.3834 12.1439 40.6823C12.7668 40.2318 13.452 39.7688 14.1622 39.4317C14.6357 39.2069 14.9346 38.7553 15.408 38.5305C15.9936 38.2181 16.4424 38.5211 16.8663 38.6983C17.0159 38.7993 17.2403 38.9508 17.3774 38.9889C18.1002 39.0413 18.6488 39.5205 19.2845 39.7863C19.7083 39.9635 20.1945 40.1284 20.6183 40.3056C21.5282 40.6476 22.5255 41.1031 23.4354 41.4451C24.0711 41.7109 24.657 42.052 25.3924 42.1673C26.0529 42.2321 26.7136 42.6237 27.2372 42.9772C27.9727 43.4192 28.7454 43.3964 29.2435 42.6439C29.6546 42.1047 29.9908 41.515 30.4143 41.0387C30.9997 40.3996 31.5228 39.7728 32.1082 39.1336C32.6314 38.5068 33.1295 37.7542 33.6651 37.1903C34.2007 36.6264 34.649 35.9491 35.1224 35.3975C35.5459 34.9212 35.8197 34.344 36.3305 33.981C37.1154 33.3676 37.4514 32.4512 38.0992 31.7996C38.585 31.3109 38.9212 30.7213 39.2699 30.1945C39.6684 29.5924 40.1292 28.978 40.6025 28.4265C41.026 27.9502 41.2999 27.3729 41.7234 26.8966C42.2963 26.1946 42.8817 25.5554 43.3799 24.8028C44.0275 23.8245 44.8496 23.0729 45.4349 22.107C45.8209 21.4421 46.5061 20.9792 46.8921 20.3142C47.4151 19.3607 48.175 18.6215 48.7602 17.6556C49.4451 16.5391 50.2173 15.536 50.977 14.4701C51.1265 14.2443 51.2011 13.9681 51.3505 13.7423C52.1102 12.6763 53.1941 11.9381 54.1284 11.0989C55.399 9.99679 56.6697 8.89467 57.9528 7.85542C58.5633 7.34199 59.236 6.81617 59.8589 6.36561C60.3074 6.01507 60.7932 5.5264 61.2417 5.17586C62.0888 4.55003 62.6991 3.70984 63.5462 3.08401C63.9947 2.73347 64.2936 2.28194 64.5925 1.83041C65.0408 1.15311 64.7539 0.687262 63.9313 0.458582C63.3205 0.318509 62.6975 0.442316 62.1117 0.427992C61.0773 0.437459 60.0929 0.698423 59.1083 0.632634C58.3232 0.592578 57.5507 0.942149 56.728 0.71347C56.1173 0.573398 55.3323 0.860095 54.6219 0.870533C53.6498 0.867619 52.7277 1.1162 51.8304 1.16378C49.9112 1.2837 48.0172 1.85612 46.0855 1.91317C45.8238 1.89982 45.5996 2.07509 45.3378 2.06174C44.2038 2.22171 43.0448 2.25594 41.9856 2.46641C40.4902 2.76355 39.0199 3.18643 37.4995 3.35781C37.1257 3.4321 36.8641 3.7455 36.403 3.70641C36.0041 3.65495 35.5307 3.87974 35.1568 3.95403C33.8609 4.27689 32.5897 4.39876 31.2938 4.72162C30.6084 4.85781 29.8857 5.13213 29.0881 5.0292C28.6394 5.05299 28.0039 5.11392 27.6177 5.45208C27.3934 5.62735 27.1565 5.413 26.845 5.4749C26.035 5.63585 25.1877 5.93492 24.3527 5.97012C23.0068 6.04149 21.8979 6.65397 20.6393 6.83871C20.2655 6.91299 19.9166 7.11302 19.468 7.13681C17.823 7.33296 16.1907 7.91873 14.5707 8.24063C13.823 8.3892 13.0255 8.61302 12.2778 8.76159C12.0909 8.79873 11.8542 8.91113 11.7171 8.87301C11.019 8.61957 10.795 9.1216 10.5584 9.56075C9.94828 10.7277 9.40049 11.8822 8.7031 12.9358C8.05553 13.9141 7.53256 14.8677 7.02209 15.8841C6.68589 16.4738 6.1003 16.7862 5.97601 17.4645C5.83922 18.0798 5.19132 18.4047 4.91743 18.9819C4.68085 19.4211 4.31967 19.885 4.2202 20.3623C4.10824 20.7766 3.7344 20.8509 3.53514 21.1519C3.34838 21.5158 3.22393 21.8674 3.03716 22.2313C2.71346 22.8838 2.22765 23.3725 2.04105 24.0631C1.89177 24.6156 1.92925 24.8042 2.49017 25.0196C3.53722 25.3997 4.6589 25.5036 5.68096 25.758C7.11434 26.1268 8.56005 26.2317 9.95611 26.7386C10.3674 26.8529 10.7663 26.9044 11.1901 27.0816ZM63.4708 1.72651C62.2001 2.82863 60.9918 3.91837 59.8333 4.93285C59.0111 5.68443 57.9395 6.15878 57.2297 7.14948C57.1798 7.22473 57.0552 7.24949 56.9306 7.27425C56.2579 7.80007 55.5727 8.26301 54.9124 8.8517C54.6384 9.10222 54.3643 9.35275 54.1028 9.66615C53.7416 10.13 53.0935 10.1281 52.7198 10.5291C52.2465 11.0807 51.7109 11.6446 51.1503 12.0828C49.207 13.7107 47.1888 15.2882 45.1706 16.8656C44.8342 17.1285 44.3483 17.2904 44.1365 17.5286C43.5636 18.2306 42.7786 18.5173 42.1807 19.0936C41.1343 20.0205 39.7637 20.6196 38.7298 21.6093C38.5678 21.7722 38.4059 21.9351 38.219 21.9723C37.7205 22.0713 37.3343 22.4095 37.0105 22.7353C36.1883 23.4868 35.1416 23.7602 34.3942 24.5623C33.7465 25.2138 32.7994 25.3366 32.0768 25.9377C31.4166 26.5264 30.6316 26.8131 29.9589 27.3389C29.3983 27.7771 28.7504 28.1019 28.1773 28.4772C27.2678 29.1154 26.3584 29.7536 25.4364 30.329C25.1499 30.5166 24.776 30.5909 24.5643 30.829C23.4681 31.8312 22.1723 32.4808 20.9888 33.3695C19.9672 34.0953 18.8708 34.7707 17.7744 35.4461C17.0269 35.9214 16.2919 36.4596 15.5444 36.9349C14.4605 37.6731 13.4016 38.5371 12.3177 39.2753C11.3459 39.9259 10.3866 40.6394 9.42737 41.3528C8.4681 42.0663 7.34673 42.6159 6.38746 43.3294C5.30358 44.0676 4.14489 44.7553 3.06101 45.4936C2.94889 45.5812 2.78695 45.7441 2.63735 45.6431C2.48775 45.5421 2.51258 45.3411 2.5374 45.1401C2.56207 44.6124 2.77366 44.0475 2.68621 43.6073C2.56127 42.9786 2.76037 42.3508 2.71023 41.7726C2.6601 41.1943 2.85919 40.5665 2.88386 40.0388C2.95834 39.4358 3.10762 38.8833 3.1073 38.2297C3.082 37.4505 3.36823 36.6093 3.40523 35.8177C3.40475 34.8374 3.67848 33.9334 3.7528 33.0037C3.78996 32.5388 3.97672 32.1749 4.38789 31.9625C4.96098 31.5872 5.63386 31.3881 6.10717 30.8365C6.38123 30.586 6.89218 30.5499 7.16623 30.2993C7.9884 29.5477 8.94783 29.161 9.88227 28.6486C10.7544 28.1485 11.6515 27.7742 12.5362 27.337C13.4208 26.8997 14.268 26.2739 15.2399 25.9501C16.1993 25.5634 16.9717 24.887 17.9186 24.4375C19.339 23.7631 20.6346 22.7867 21.9678 21.999C22.8399 21.4989 23.7743 20.9864 24.7213 20.5368C25.0826 20.3997 25.1946 19.9853 25.5684 19.911C26.3784 19.75 26.9638 19.1109 27.8361 18.9375C28.2723 18.8509 28.6958 18.3746 29.107 18.1622C29.6925 17.8497 30.2906 17.6002 30.8762 17.2878C31.9976 16.7381 33.1064 16.1257 34.2278 15.5761C34.9878 15.1636 35.7354 14.6883 36.5079 14.3387C37.1059 14.0892 37.6292 13.7891 38.2148 13.4767C38.8004 13.1643 39.361 12.7261 40.0089 12.4013C40.9434 11.8888 41.828 11.4516 42.7749 11.002C43.5349 10.5896 44.3698 10.2276 45.0675 9.82757C45.7652 9.42751 46.5752 9.26656 47.1856 8.75313C47.6839 8.32733 48.3693 8.19114 48.9548 7.87871C49.4906 7.64154 49.9391 7.291 50.5497 7.10432C51.2226 6.90526 51.8455 6.4547 52.4934 6.12989C53.6645 5.50503 54.923 4.99354 56.1067 4.43155C57.4025 3.78193 58.8854 3.42193 60.1936 2.83518C61.2279 2.49896 62.3244 2.15036 63.4708 1.72651ZM3.31218 23.9412C3.59857 23.4268 3.76034 22.9372 4.07172 22.5485C4.83141 21.4826 5.44151 20.3156 6.12641 19.1992C6.61205 18.3838 7.16 17.556 7.64564 16.7406C8.08147 16.0004 8.38019 15.2221 8.76621 14.5572C9.53824 13.2274 10.248 11.9099 11.02 10.5801C11.4558 9.83992 11.9543 9.74087 12.6397 9.60469C13.325 9.4685 13.9979 9.26944 14.6958 9.19613C15.4435 9.04756 16.1787 8.83612 16.9139 8.62468C17.5867 8.42561 18.2971 8.41518 18.97 8.21612C19.6429 8.01706 20.3781 7.80561 21.0634 7.66943C23.1819 7.24849 25.2878 6.76467 27.4187 6.4066C28.5528 6.24663 29.7241 5.94852 30.8456 5.72567C31.9048 5.5152 32.9018 5.31711 33.961 5.10664C35.4563 4.80951 36.9394 4.77625 38.3973 4.29049C38.9455 4.11619 39.5563 4.25626 40.1544 4.00671C40.5157 3.86955 40.902 3.85814 41.2884 3.84673C41.9239 3.7858 42.522 3.53625 43.0828 3.42482C43.8928 3.26387 44.7277 3.22867 45.4754 3.08011C46.6593 2.84488 47.8681 2.73539 49.0021 2.57542C49.7498 2.42685 50.4602 2.41641 51.158 2.3431C51.7188 2.23167 52.2795 2.12025 52.8653 2.13457C53.638 2.11175 54.3981 2.02606 55.1583 1.94037C55.7939 1.87944 56.4918 1.80612 57.1148 1.68232C58.2488 1.52234 59.3455 1.50049 60.4671 1.27764C60.9655 1.1786 61.4142 1.15481 61.9251 1.11864C60.8785 1.71873 59.8195 2.25596 58.7354 2.66743C57.6141 3.21704 56.505 3.50276 55.421 3.91424C54.9973 4.06377 54.5737 4.21331 54.1625 4.42573C52.7919 5.02485 51.4338 5.68685 49.9635 6.10974C48.0196 6.75741 46.1007 7.53084 44.2317 8.22901C42.7863 8.77764 41.3159 9.20052 39.9578 9.86253C38.8863 10.3369 37.7897 10.6855 36.7805 11.1474C35.0485 11.8837 33.2916 12.4942 31.5472 13.1677C29.8152 13.9039 28.1206 14.5021 26.3762 15.1755C25.2423 15.6622 24.096 16.0861 22.9496 16.5099C22.1646 16.7966 21.4794 17.2596 20.7317 17.4081C19.6102 17.631 18.5636 18.2311 17.5419 18.6302C15.9844 19.2665 14.4269 19.9027 12.8818 20.6019C10.988 21.501 8.8945 22.0477 6.91333 22.8335C6.31525 23.0831 5.59239 23.0307 5.01929 23.406C4.4462 23.7813 3.96024 23.9432 3.31218 23.9412ZM49.4443 14.9053C49.071 15.9599 48.3859 16.7496 47.838 17.5774C47.2402 18.4804 46.5178 19.4083 45.8452 20.2608C45.1229 21.1887 44.5376 22.1546 43.7279 22.969C43.0802 23.6206 42.5322 24.4484 41.9718 25.2133C41.4239 26.0411 40.6515 26.7175 40.1036 27.5453C39.8047 27.9968 39.431 28.3978 39.0698 28.8617C38.4346 29.5762 37.7868 30.2277 37.3635 31.0308C37.0771 31.5452 36.6411 31.9586 36.2674 32.3596C35.5824 33.1493 35.1965 34.141 34.2746 34.7163C34.2746 34.7163 34.2871 34.7792 34.2372 34.8545C33.7889 35.5318 33.2035 36.1709 32.7427 36.7854C32.2819 37.3998 31.6714 37.9132 31.2854 38.5781C30.8621 39.3812 30.1271 39.9194 29.6414 40.7348C29.355 41.2492 28.7196 41.6369 28.4332 42.1513C28.1469 42.6657 27.91 42.4513 27.6233 42.3122C26.7631 41.8949 25.878 41.3519 25.0304 40.9975C23.9833 40.6173 23.0732 39.9485 21.9889 39.7065C20.5555 39.3377 19.2839 38.4793 17.8255 37.9848C17.5513 37.9086 17.1525 37.8571 16.9404 37.4418C17.3268 37.4304 17.551 37.2551 17.85 37.1303C18.3733 36.8303 18.8716 36.4045 19.4697 36.1549C20.0055 35.9177 20.6036 35.6682 21.1018 35.2424C21.6375 34.6785 22.3352 34.2784 22.9456 33.765C23.4439 33.3392 24.1043 33.0772 24.6774 32.7019C24.9639 32.5143 25.1507 32.1504 25.4497 32.0256C26.5711 31.476 27.5429 30.8254 28.5644 30.0996C29.4739 29.4613 30.3709 28.7603 31.2928 28.1849C32.0403 27.7096 32.7629 27.1085 33.4979 26.5703C34.4074 25.9321 35.242 25.2434 36.1515 24.6052C37.0609 23.967 38.0702 23.505 38.9671 22.804C39.7022 22.2658 40.512 21.7781 41.2345 21.177C41.683 20.8265 42.144 20.5388 42.5302 20.2006C42.8042 19.9501 43.0035 19.6491 43.3523 19.449C43.8631 19.0861 44.3739 18.7232 44.8847 18.3603C45.2834 18.085 45.6695 17.7468 46.0682 17.4715C46.6413 17.0962 47.1271 16.6076 47.7002 16.2323C48.2733 15.857 48.8214 15.3559 49.4443 14.9053ZM4.95747 24.3986C4.94497 24.3357 4.93248 24.2729 4.91999 24.21C5.59287 24.0109 6.21578 23.5604 6.85134 23.4994C7.4869 23.4385 7.99769 23.0756 8.54596 22.9013C9.58019 22.5651 10.5271 22.1155 11.5489 21.7164C12.5706 21.3173 13.7544 21.082 14.7637 20.6201C15.6608 20.2457 16.6078 19.7962 17.5049 19.4218C18.7634 18.9103 20.0966 18.4493 21.3551 17.9378C22.1899 17.5759 23.0247 17.2139 23.872 16.9149C25.0184 16.491 26.2146 15.9919 27.3609 15.568C28.5696 15.1318 29.828 14.6203 31.0117 14.0583C32.0833 13.584 33.1673 13.1725 34.1891 12.7734C34.6127 12.6239 34.8743 12.3105 35.2979 12.1609C36.2823 11.9 37.2543 11.5761 38.2635 11.1142C39.3226 10.577 40.5064 10.3417 41.6528 9.91788C42.2508 9.66832 42.8739 9.54451 43.447 9.16921C43.6214 9.06919 43.8582 8.9568 43.9704 9.19592C44.0827 9.43503 43.7712 9.49693 43.6466 9.5217C42.9489 9.92176 42.2387 10.2589 41.4662 10.6085C40.4071 11.1457 39.2982 11.7582 38.2392 12.2954C37.2424 12.8203 36.2582 13.408 35.1741 13.8195C34.8128 13.9566 34.5887 14.4587 34.0901 14.2309C33.5794 14.9206 32.7321 15.2197 32.0219 15.5569C31.2494 15.9065 30.5144 16.4447 29.6671 16.7437C28.583 17.1552 27.6113 17.8058 26.6145 18.3306C25.4433 18.9555 24.2722 19.5804 23.1135 20.2681C22.3036 20.7558 21.4315 21.2559 20.6092 21.6807C20.3724 21.7931 19.9861 21.8045 19.8242 21.9674C19.1016 22.5685 18.2668 22.9304 17.5068 23.3429C16.3979 23.9553 15.2891 24.5678 14.1927 25.2432C13.6196 25.6185 13.1088 25.9814 12.4982 26.1681C11.4515 26.4414 10.4168 25.7974 9.45702 25.5306C8.63437 25.3019 7.77425 24.8846 6.8893 24.6683C6.24125 24.6664 5.63051 24.5263 4.95747 24.3986Z" fill="#BBB0DB"/>
<path d="M9.26372 38.2482C9.67472 37.709 10.3351 37.4471 10.8334 37.0213C11.556 36.4202 12.3533 35.8697 13.1631 35.382C13.9107 34.9066 14.5584 34.2551 15.3059 33.7798C16.0659 33.3673 16.7137 32.7158 17.4862 32.3662C17.9597 32.1414 18.3208 31.6775 18.7818 31.3898C19.7038 30.8145 20.6007 30.1134 21.4479 29.4876C22.295 28.8617 23.1297 28.173 24.0516 27.5977C24.5126 27.31 24.8613 26.7832 25.4969 26.7223C25.6215 26.6975 25.8083 26.3336 25.9702 26.1708C26.3564 25.8326 26.8173 25.5449 27.2285 25.3325C27.8141 25.0201 28.1503 24.4304 28.8107 24.1685C29.4711 23.9066 30.1065 23.5189 30.6048 23.0931C31.3148 22.4291 32.3615 22.1558 32.9843 21.3785C33.2459 21.0651 33.5574 21.0032 33.8439 20.8155C34.4668 20.365 35.1272 20.103 35.7501 19.6525C36.3232 19.2772 36.8838 18.839 37.5192 18.4513C38.4537 17.9388 39.3008 17.313 40.2353 16.8005C40.9953 16.3881 41.7428 15.9128 42.4405 15.5127C44.0727 14.6002 45.7048 13.6877 47.3245 12.7123C48.1841 12.1493 49.2059 11.7502 50.053 11.1244C50.7383 10.6614 51.4235 10.1985 52.0464 9.74795C52.1585 9.66031 52.2706 9.57268 52.1085 9.40881C52.0212 9.29545 51.9091 9.38308 51.8593 9.45834C51.4233 9.87175 50.8875 10.1089 50.4141 10.3337C49.2429 10.9586 48.1715 11.7597 46.8382 12.2207C46.1155 12.495 45.5051 13.0084 44.8074 13.4085C44.172 13.7962 43.4493 14.0705 42.8264 14.521C42.0291 15.0716 41.1444 15.5088 40.2723 16.0089C39.3503 16.5842 38.4534 17.2853 37.4441 17.7473C36.9707 17.9721 36.5222 18.3226 35.9989 18.6227C35.4756 18.9227 34.9398 19.1599 34.5038 19.5733C33.8934 20.0868 33.1957 20.4868 32.5603 20.8745C31.5761 21.4622 30.6168 22.1757 29.645 22.8263C28.5611 23.5645 27.5521 24.3532 26.3934 25.041C25.5835 25.5287 24.9233 26.1174 24.1883 26.6555C23.3411 27.2814 22.3817 27.6681 21.7091 28.5207C21.4476 28.8341 20.9616 28.996 20.5504 29.2084C19.8029 29.6837 19.0804 30.2848 18.3329 30.7601C17.0247 31.6736 15.6543 32.5995 14.3712 33.6387C13.6486 34.2398 12.739 34.5512 12.0913 35.2028C11.1072 36.1173 9.91098 36.6164 8.91438 37.468C8.41609 37.8938 7.88031 38.131 7.44432 38.5444C7.28239 38.7073 7.29488 38.7701 7.38218 38.8835C7.46947 38.9969 7.54427 39.0474 7.65639 38.9597C8.25447 38.7102 8.71545 38.4225 9.26372 38.2482Z" fill="#BBB0DB"/>
<path d="M10.382 31.1638C10.0829 31.2885 10.1702 31.4019 10.27 31.5781C10.4571 31.8677 10.6689 31.9564 10.943 31.7058C11.1049 31.5429 11.2794 31.4429 11.1048 31.2162C10.8804 31.0647 10.6435 30.8504 10.382 31.1638Z" fill="#BBB0DB"/>
<path d="M33.6067 19.2943C33.5567 19.0428 33.756 18.7417 33.4195 18.6779C33.2824 18.6398 32.9833 18.7646 33.0083 18.8903C33.0583 19.1418 33.3698 19.0799 33.6067 19.2943Z" fill="#BBB0DB"/>
<path d="M50.7477 4.18948C50.5482 3.83699 50.1868 3.97415 49.9999 4.01129C48.3176 4.34557 46.6352 4.35309 45.0152 4.67499C43.8937 4.89784 42.7596 5.05781 41.6256 5.21779C40.6287 5.41588 39.6193 5.5511 38.6224 5.74919C38.0616 5.86061 37.4137 6.18542 36.8903 6.15872C35.8434 6.10531 34.884 6.49202 33.8746 6.62724C32.8029 6.77483 31.6938 7.06056 30.6346 7.27103C29.8246 7.43198 28.9773 7.73105 28.1423 7.76625C27.8058 7.70241 27.432 7.77669 27.0831 7.97672C26.7343 8.17675 26.2856 8.20054 25.8993 8.21195C24.9522 8.33479 24.0551 8.70912 23.108 8.83196C22.0238 8.91668 21.0145 9.37865 19.893 9.6015C18.8338 9.81197 17.7372 10.1606 16.6157 10.3834C15.9303 10.5196 15.2076 10.7939 14.4973 10.8043C14.3602 10.7662 14.1733 10.8034 14.0861 11.0168C13.999 11.2301 13.8994 11.3807 14.2857 11.3692C15.2578 11.3722 16.2174 11.3122 17.127 11.0007C17.5506 10.8512 17.9868 10.7645 18.3606 10.6903C19.6941 10.556 20.9027 10.1198 22.1364 9.8093C22.9962 9.5731 23.8935 9.52552 24.8156 9.27693C25.7252 8.96548 26.6973 8.96839 27.6194 8.71981C28.554 8.5341 29.4886 8.34839 30.4107 8.0998C31.2082 7.87598 32.0307 7.77791 32.903 7.60458C33.7628 7.36838 34.7099 7.24554 35.5822 7.07221C36.5791 6.87412 37.5885 6.73891 38.5854 6.54082C39.7069 6.31797 40.8409 6.15799 41.9375 5.80939C42.4858 5.63509 43.1338 5.63704 43.7569 5.51323C44.9407 5.278 46.1495 5.16852 47.4082 4.98378C48.3553 4.86094 49.3272 4.5371 50.2868 4.47714C50.3989 4.38951 50.5608 4.22662 50.7477 4.18948Z" fill="#BBB0DB"/>
<path d="M12.7404 11.7415C12.7777 11.6034 13.027 11.5539 12.8026 11.4024C12.653 11.3014 12.5157 10.9365 12.1793 11.1995C12.0672 11.2871 11.8305 11.3995 12.0674 11.6138C12.2918 11.7653 12.5535 11.7787 12.7404 11.7415Z" fill="#BBB0DB"/>
<path d="M26.5625 38.9284C26.4877 38.8779 26.5873 38.7274 26.3754 38.6388C25.0666 38.2453 23.7704 37.9147 22.4366 37.3954C22.0876 37.2687 21.6763 37.1543 21.3272 37.0276C21.1278 37.0019 20.9409 37.039 20.8911 37.1143C20.7915 37.2648 21.0034 37.3534 21.2153 37.442C21.9258 37.7583 22.6861 37.9994 23.4215 38.1147C24.294 38.2681 25.0545 38.8359 25.9642 38.8512C26.1761 38.9398 26.3756 38.9656 26.5625 38.9284Z" fill="#BBB0DB"/>
<path d="M31.8679 32.0576C31.8676 31.4041 31.4936 31.1516 31.1071 30.8363C30.945 30.6724 30.6708 30.5962 30.4465 30.7715C30.3344 30.8591 30.2348 31.0096 30.1226 31.0973C30.2847 31.2611 30.4468 31.425 30.6587 31.5136C31.1324 31.6155 31.5312 31.667 31.8679 32.0576Z" fill="#BBB0DB"/>
<path d="M27.7196 35.6268C27.8818 36.1174 28.3678 35.9555 28.5422 35.8555C28.8413 35.7307 28.4548 35.4153 28.5294 35.1391C28.1929 35.0752 27.9185 34.6723 27.632 34.8599C27.2956 35.1228 27.4827 35.4124 27.7196 35.6268Z" fill="#BBB0DB"/>
</g>
</g>
<defs>
<clipPath id="clip0_76_886">
<rect width="65" height="48" fill="white" transform="translate(0.609863)"/>
</clipPath>
<clipPath id="clip1_76_886">
<rect width="65" height="48" fill="white" transform="translate(0.609863)"/>
</clipPath>
</defs>
</svg>
