<svg width="514" height="151" viewBox="0 0 514 151" fill="none" xmlns="http://www.w3.org/2000/svg">
<g clip-path="url(#clip0_76_906)">
<path d="M217.136 -76.4198C167.83 -104.434 124.043 -106.226 89.1603 -99.4C39.1122 -89.5984 -0.80936 -61.1968 1.80614 -4.00886C2.3075 6.81964 4.63861 19.2735 13.2115 32.433C26.5899 52.9636 50.4694 68.4875 71.2673 79.1771C123.08 105.821 171.998 118.449 218.833 128.267C262.455 137.416 305.085 144.463 346.723 149.409C379.223 153.296 411.644 155.766 435.844 147.071C439.302 145.82 442.777 143.936 441.939 139.232C441.251 136.136 439.274 132.591 436.419 129.331C424.811 115.57 408.129 110.579 395.792 109.284C333.753 102.963 295.636 134.032 273.662 175.863C266.616 189.307 261.059 205.475 269.927 227.856C281.81 257.922 317.191 289.964 348.621 305.893C380.05 321.823 408.155 325.007 434.243 326.384C500.022 329.78 560.135 323.73 613.287 308.364" stroke="#BBB0DB" stroke-width="2" stroke-miterlimit="10"/>
</g>
<defs>
<clipPath id="clip0_76_906">
<rect width="514" height="300" fill="white" transform="translate(0 0.5)"/>
</clipPath>
</defs>
</svg>
