<svg width="621" height="425" viewBox="0 0 621 425" fill="none" xmlns="http://www.w3.org/2000/svg">
<g clip-path="url(#clip0_72_498)">
<path fill-rule="evenodd" clip-rule="evenodd" d="M653.901 515.134C603.205 601.259 467.203 598.016 344.745 563.216C223.905 528.875 100.134 456.777 73.3274 350.146C45.9544 241.261 127.304 159.958 235.702 129.463C337.024 100.958 460.558 134.854 548.925 216.347C644.898 304.855 705.761 427.033 653.901 515.134Z" stroke="#FFC224" stroke-width="2.07966"/>
<path fill-rule="evenodd" clip-rule="evenodd" d="M614.135 514.739C558.676 592.351 429.642 577.804 316.145 534.395C204.148 491.56 92.5467 412.58 76.0471 308.937C59.1989 203.106 143.397 132.662 249.029 112.804C347.767 94.242 462.364 136.881 539.51 221.81C623.299 314.051 670.868 435.345 614.135 514.739Z" fill="#FFC224"/>
</g>
<defs>
<clipPath id="clip0_72_498">
<rect width="620.969" height="423.607" fill="white" transform="translate(0 0.893311)"/>
</clipPath>
</defs>
</svg>
