<svg width="266" height="220" viewBox="0 0 266 220" fill="none" xmlns="http://www.w3.org/2000/svg">
<g clip-path="url(#clip0_72_172)">
<path fill-rule="evenodd" clip-rule="evenodd" d="M37.0287 2.84732C56.1706 -5.03287 81.9165 11.566 104.139 11.3013C122.525 11.0822 136.523 -1.81577 155.424 1.43672C176.039 4.9841 199.481 12.783 214.216 30.2436C228.92 47.6687 222.662 70.7643 231.036 91.0372C239.971 112.667 266.516 131.713 264.802 152.711C263.113 173.401 239.161 179.962 222.936 190.281C208.94 199.183 193.277 204.426 176.582 208.822C158.341 213.622 140.515 218.217 120.437 217.258C93.8237 215.989 58.2185 226.445 40.7086 202.337C21.4537 175.826 56.9657 148.797 49.0775 119.009C42.4693 94.0544 3.89831 78.4035 1.32824 53.6258C-1.12338 29.99 17.1347 11.0372 37.0287 2.84732Z" fill="#FBE67B"/>
</g>
<defs>
<clipPath id="clip0_72_172">
<rect width="264.438" height="218.733" fill="white" transform="translate(0.585449 0.303955)"/>
</clipPath>
</defs>
</svg>
