<svg width="505" height="503" viewBox="0 0 505 503" fill="none" xmlns="http://www.w3.org/2000/svg">
<g clip-path="url(#clip0_72_208)">
<path d="M156.364 30.7181C181.157 -1.77181 227.594 -8.01147 260.084 16.7815L475.522 181.182C508.012 205.974 514.252 252.411 489.459 284.901C464.666 317.391 418.229 323.631 385.739 298.838L170.301 134.438C137.811 109.645 131.572 63.208 156.364 30.7181Z" fill="#FFC738"/>
<path d="M104.383 148.289C128.841 116.239 174.651 110.083 206.701 134.541L375.236 263.149C407.287 287.607 413.442 333.416 388.985 365.467C364.527 397.518 318.717 403.673 286.666 379.216L118.132 250.607C86.0808 226.15 79.9255 180.34 104.383 148.289Z" fill="#FFC738"/>
<path d="M15.4985 230.152C40.6264 197.223 87.6908 190.899 120.62 216.027L319.364 367.687C352.293 392.815 358.616 439.88 333.489 472.809C308.361 505.738 261.296 512.062 228.367 486.934L29.6235 335.273C-3.30549 310.145 -9.62946 263.081 15.4985 230.152Z" fill="#FFC738"/>
</g>
<defs>
<clipPath id="clip0_72_208">
<rect width="505" height="502" fill="white" transform="translate(0 0.889893)"/>
</clipPath>
</defs>
</svg>
