<svg width="34" height="22" viewBox="0 0 34 22" fill="none" xmlns="http://www.w3.org/2000/svg">
<g clip-path="url(#clip0_72_220)">
<path d="M28.7704 9.93045C29.7367 9.24986 30.3766 8.11773 30.3766 6.84163C30.3766 4.75407 28.692 3.06569 26.6091 3.06569C24.5262 3.06569 22.8416 4.75407 22.8416 6.84163C22.8416 8.11773 23.475 9.24986 24.4478 9.93045C23.6186 10.2184 22.8612 10.6634 22.2213 11.2392C21.3398 10.4867 20.3016 9.91081 19.1655 9.57052C20.5432 8.73288 21.4704 7.2081 21.4704 5.47392C21.4704 2.8301 19.3353 0.690186 16.6974 0.690186C14.0594 0.690186 11.9243 2.83665 11.9243 5.47392C11.9243 7.2081 12.845 8.73288 14.2292 9.57052C13.1061 9.91081 12.081 10.4802 11.2061 11.2196C10.5662 10.6568 9.82179 10.2184 9.0056 9.93699C9.97197 9.2564 10.6119 8.12428 10.6119 6.84818C10.6119 4.76061 8.92725 3.07223 6.84435 3.07223C4.76144 3.07223 3.07683 4.76061 3.07683 6.84818C3.07683 8.12428 3.71019 9.2564 4.68309 9.93699C2.09088 10.8335 0.22998 13.3006 0.22998 16.1996V16.6316C0.22998 16.6446 0.243039 16.6577 0.256098 16.6577H8.24165C8.19595 17.0177 8.16983 17.3907 8.16983 17.7637V18.2087C8.16983 20.1326 9.72385 21.6901 11.6435 21.6901H21.7642C23.6839 21.6901 25.2379 20.1326 25.2379 18.2087V17.7637C25.2379 17.3907 25.2118 17.0177 25.1661 16.6577H33.2039C33.2169 16.6577 33.23 16.6446 33.23 16.6316V16.1996C33.2169 13.2941 31.3626 10.8269 28.7704 9.93045ZM23.8863 6.83509C23.8863 5.32995 25.1073 4.1062 26.6091 4.1062C28.1109 4.1062 29.3319 5.32995 29.3319 6.83509C29.3319 8.3206 28.137 9.53126 26.6613 9.56398C26.6418 9.56398 26.6287 9.56398 26.6091 9.56398C26.5895 9.56398 26.5765 9.56398 26.5569 9.56398C25.0747 9.5378 23.8863 8.32714 23.8863 6.83509ZM12.956 5.47392C12.956 3.41253 14.6275 1.73724 16.6843 1.73724C18.7411 1.73724 20.4126 3.41253 20.4126 5.47392C20.4126 7.46332 18.8521 9.0928 16.8998 9.20405C16.8279 9.20405 16.7561 9.20405 16.6843 9.20405C16.6125 9.20405 16.5406 9.20405 16.4688 9.20405C14.5165 9.0928 12.956 7.46332 12.956 5.47392ZM4.10196 6.83509C4.10196 5.32995 5.32298 4.1062 6.82476 4.1062C8.32654 4.1062 9.54755 5.32995 9.54755 6.83509C9.54755 8.3206 8.35266 9.53126 6.87699 9.56398C6.8574 9.56398 6.84435 9.56398 6.82476 9.56398C6.80517 9.56398 6.79211 9.56398 6.77252 9.56398C5.29686 9.5378 4.10196 8.32714 4.10196 6.83509ZM8.42448 15.6041H1.28776C1.58158 12.8164 3.9322 10.6307 6.78558 10.611C6.79864 10.611 6.8117 10.611 6.82476 10.611C6.83782 10.611 6.85087 10.611 6.86393 10.611C8.22207 10.6176 9.46267 11.1214 10.4225 11.9394C9.48226 12.9603 8.7836 14.2168 8.42448 15.6041ZM24.1801 18.2087C24.1801 19.5502 23.0897 20.6431 21.7512 20.6431H11.6305C10.2919 20.6431 9.20149 19.5502 9.20149 18.2087V17.7637C9.20149 13.6998 12.4401 10.3754 16.4688 10.2577C16.5406 10.2642 16.619 10.2642 16.6908 10.2642C16.7626 10.2642 16.841 10.2642 16.9128 10.2577C20.9415 10.3754 24.1801 13.6998 24.1801 17.7637V18.2087ZM24.9571 15.6041C24.598 14.2233 23.9124 12.9865 22.9787 11.9656C23.9451 11.128 25.1987 10.6241 26.5699 10.611C26.583 10.611 26.596 10.611 26.6091 10.611C26.6222 10.611 26.6352 10.611 26.6483 10.611C29.5017 10.6307 31.8523 12.8164 32.1461 15.6041H24.9571Z" fill="white"/>
</g>
<defs>
<clipPath id="clip0_72_220">
<rect width="33" height="21" fill="white" transform="translate(0.22998 0.689941)"/>
</clipPath>
</defs>
</svg>
