<svg width="15" height="16" viewBox="0 0 15 16" fill="none" xmlns="http://www.w3.org/2000/svg">
<g clip-path="url(#clip0_72_628)">
<path d="M10.3125 0.73999H4.6875C2.09906 0.73999 0 2.83905 0 5.42749V11.0525C0 13.6409 2.09906 15.74 4.6875 15.74H10.3125C12.9009 15.74 15 13.6409 15 11.0525V5.42749C15 2.83905 12.9009 0.73999 10.3125 0.73999ZM13.5938 11.0525C13.5938 12.8619 12.1219 14.3338 10.3125 14.3338H4.6875C2.87813 14.3338 1.40625 12.8619 1.40625 11.0525V5.42749C1.40625 3.61812 2.87813 2.14624 4.6875 2.14624H10.3125C12.1219 2.14624 13.5938 3.61812 13.5938 5.42749V11.0525Z" fill="white"/>
<path d="M7.5 4.48999C5.42906 4.48999 3.75 6.16905 3.75 8.23999C3.75 10.3109 5.42906 11.99 7.5 11.99C9.57094 11.99 11.25 10.3109 11.25 8.23999C11.25 6.16905 9.57094 4.48999 7.5 4.48999ZM7.5 10.5837C6.20813 10.5837 5.15625 9.53186 5.15625 8.23999C5.15625 6.94718 6.20813 5.89624 7.5 5.89624C8.79187 5.89624 9.84375 6.94718 9.84375 8.23999C9.84375 9.53186 8.79187 10.5837 7.5 10.5837Z" fill="white"/>
<path d="M11.5314 4.70836C11.8073 4.70836 12.0311 4.48464 12.0311 4.20867C12.0311 3.9327 11.8073 3.70898 11.5314 3.70898C11.2554 3.70898 11.0317 3.9327 11.0317 4.20867C11.0317 4.48464 11.2554 4.70836 11.5314 4.70836Z" fill="white"/>
</g>
<defs>
<clipPath id="clip0_72_628">
<rect width="15" height="15" fill="white" transform="translate(0 0.73999)"/>
</clipPath>
</defs>
</svg>
