<svg width="16" height="16" viewBox="0 0 16 16" fill="none" xmlns="http://www.w3.org/2000/svg">
<g clip-path="url(#clip0_72_624)">
<path d="M16 2.42867C15.405 2.71505 14.771 2.90488 14.11 2.99705C14.79 2.55156 15.309 1.85151 15.553 1.00772C14.919 1.42248 14.219 1.71545 13.473 1.87894C12.871 1.1756 12.013 0.73999 11.077 0.73999C9.261 0.73999 7.799 2.35735 7.799 4.34009C7.799 4.62538 7.821 4.89969 7.875 5.16084C5.148 5.0149 2.735 3.58079 1.114 1.39615C0.831 1.9349 0.665 2.55156 0.665 3.2154C0.665 4.46189 1.25 5.56682 2.122 6.20652C1.595 6.19555 1.078 6.02767 0.64 5.76323C0.64 5.7742 0.64 5.78847 0.64 5.80273C0.64 7.55176 1.777 9.00453 3.268 9.33919C3.001 9.41929 2.71 9.4577 2.408 9.4577C2.198 9.4577 1.986 9.44453 1.787 9.39625C2.212 10.8216 3.418 11.8695 4.852 11.9035C3.736 12.8614 2.319 13.4386 0.785 13.4386C0.516 13.4386 0.258 13.4254 0 13.3892C1.453 14.4173 3.175 15.0043 5.032 15.0043C11.068 15.0043 14.368 9.51805 14.368 4.76253C14.368 4.60343 14.363 4.44982 14.356 4.2973C15.007 3.79036 15.554 3.15725 16 2.42867Z" fill="white"/>
</g>
<defs>
<clipPath id="clip0_72_624">
<rect width="16" height="15" fill="white" transform="translate(0 0.73999)"/>
</clipPath>
</defs>
</svg>
