<svg width="15" height="16" viewBox="0 0 15 16" fill="none" xmlns="http://www.w3.org/2000/svg">
<g clip-path="url(#clip0_72_626)">
<path d="M7.50187 0.73999H7.49813C3.36281 0.73999 0 4.10374 0 8.23999C0 9.88061 0.52875 11.4013 1.42781 12.6359L0.493125 15.4222L3.37594 14.5006C4.56187 15.2863 5.97656 15.74 7.50187 15.74C11.6372 15.74 15 12.3753 15 8.23999C15 4.10468 11.6372 0.73999 7.50187 0.73999ZM11.8659 11.3309C11.685 11.8419 10.9669 12.2656 10.3941 12.3894C10.0022 12.4728 9.49031 12.5394 7.76719 11.825C5.56312 10.9119 4.14375 8.67218 4.03312 8.52686C3.92719 8.38155 3.1425 7.34093 3.1425 6.26468C3.1425 5.18843 3.68906 4.66437 3.90938 4.43937C4.09031 4.25468 4.38937 4.1703 4.67625 4.1703C4.76906 4.1703 4.8525 4.17499 4.9275 4.17874C5.14781 4.18811 5.25844 4.20124 5.40375 4.54905C5.58469 4.98499 6.02531 6.06124 6.07781 6.17187C6.13125 6.28249 6.18469 6.43249 6.10969 6.5778C6.03938 6.7278 5.9775 6.79436 5.86687 6.92186C5.75625 7.04936 5.65125 7.14687 5.54062 7.28374C5.43937 7.4028 5.325 7.5303 5.4525 7.75062C5.58 7.96624 6.02063 8.6853 6.66937 9.2628C7.50656 10.0081 8.18531 10.2462 8.42812 10.3475C8.60906 10.4225 8.82469 10.4047 8.95687 10.2641C9.12469 10.0831 9.33187 9.78312 9.54281 9.4878C9.69281 9.27593 9.88219 9.24968 10.0809 9.32468C10.2834 9.39499 11.355 9.92468 11.5753 10.0344C11.7956 10.145 11.9409 10.1975 11.9944 10.2903C12.0469 10.3831 12.0469 10.8191 11.8659 11.3309Z" fill="white"/>
</g>
<defs>
<clipPath id="clip0_72_626">
<rect width="15" height="15" fill="white" transform="translate(0 0.73999)"/>
</clipPath>
</defs>
</svg>
