<svg width="21" height="18" viewBox="0 0 21 18" fill="none" xmlns="http://www.w3.org/2000/svg">
<g clip-path="url(#clip0_72_632)">
<path d="M20.1075 2.32602C19.5379 1.17091 18.9197 0.958444 17.661 0.877646C16.4036 0.780389 13.2418 0.73999 10.5026 0.73999C7.75819 0.73999 4.59506 0.780389 3.339 0.87615C2.08294 0.958444 1.46344 1.16942 0.888563 2.32602C0.301875 3.47964 0 5.46667 0 8.96493C0 8.96792 0 8.96942 0 8.96942C0 8.97241 0 8.97391 0 8.97391V8.9769C0 12.4602 0.301875 14.4622 0.888563 15.6038C1.46344 16.759 2.08162 16.9684 3.33769 17.0657C4.59506 17.1495 7.75819 17.1989 10.5026 17.1989C13.2418 17.1989 16.4036 17.1495 17.6623 17.0672C18.921 16.9699 19.5392 16.7604 20.1088 15.6053C20.7008 14.4637 21 12.4617 21 8.97839C21 8.97839 21 8.97391 21 8.97091V8.96642C21 5.46667 20.7008 3.47964 20.1075 2.32602ZM7.875 13.4582V4.48064L14.4375 8.96942L7.875 13.4582Z" fill="white"/>
</g>
<defs>
<clipPath id="clip0_72_632">
<rect width="21" height="17" fill="white" transform="translate(0 0.73999)"/>
</clipPath>
</defs>
</svg>
